<svg width="159" height="32" viewBox="0 0 159 32" fill="none" xmlns="http://www.w3.org/2000/svg">
<rect width="159" height="31.9998" fill="black" fill-opacity="0"/>
<rect width="159" height="31.9998" fill="black" fill-opacity="0"/>
<rect width="159" height="31.9998" fill="black" fill-opacity="0"/>
<path d="M25.3437 10.0062L25.9578 6.88459C25.9684 6.84321 25.9691 6.79995 25.96 6.75823C25.9508 6.71651 25.932 6.67747 25.9051 6.64418C25.8781 6.61089 25.8437 6.58426 25.8046 6.56639C25.7654 6.54852 25.7227 6.53991 25.6796 6.54122H21.528L22.1788 3.22711C22.1895 3.18528 22.1902 3.14154 22.1808 3.09941C22.1713 3.05728 22.1521 3.01792 22.1245 2.98452C22.0969 2.95112 22.0618 2.9246 22.022 2.90709C21.9822 2.88959 21.9388 2.88158 21.8954 2.88373H17.9222C17.7582 2.88952 17.6009 2.94952 17.4754 3.05417C17.3498 3.15883 17.2632 3.30212 17.2293 3.46123L15.8279 10.5837H10.9415L12.3848 3.2167C12.3964 3.17304 12.3969 3.12725 12.3864 3.08333C12.376 3.03941 12.3548 2.99872 12.3247 2.96481C12.2947 2.93091 12.2567 2.90484 12.2141 2.88889C12.1715 2.87294 12.1256 2.8676 12.0804 2.87333H8.14396C7.98002 2.87911 7.82274 2.93911 7.69719 3.04377C7.57163 3.14842 7.48502 3.29172 7.45114 3.45082L6.8318 6.53081H2.93732C2.77338 6.5366 2.6161 6.5966 2.49055 6.70125C2.36499 6.80591 2.27838 6.9492 2.2445 7.10831L1.63041 10.2299C1.61999 10.2716 1.61933 10.315 1.62848 10.357C1.63763 10.3989 1.65635 10.4382 1.68321 10.4719C1.71007 10.5055 1.74435 10.5326 1.78341 10.5511C1.82248 10.5696 1.8653 10.579 1.90859 10.5785H6.04976L5.25721 14.6366H1.32599C1.16166 14.643 1.00409 14.7031 0.877825 14.8076C0.751562 14.912 0.663698 15.055 0.627923 15.2141L0.00858521 18.3461C-0.00214808 18.3879 -0.00282695 18.4317 0.00660322 18.4738C0.0160334 18.5159 0.0353093 18.5553 0.0628799 18.5887C0.0904506 18.6221 0.125546 18.6486 0.165343 18.6661C0.205139 18.6836 0.248526 18.6916 0.292011 18.6895H4.45942L3.81384 22.0036C3.80207 22.045 3.80046 22.0887 3.80914 22.1309C3.81783 22.1731 3.83655 22.2127 3.86376 22.2462C3.89097 22.2798 3.92588 22.3065 3.96558 22.324C4.00528 22.3415 4.04863 22.3494 4.09202 22.347H8.04948C8.21336 22.3417 8.37083 22.2826 8.49718 22.1791C8.62352 22.0755 8.71159 21.9332 8.74755 21.7747L10.1437 14.6366H15.0354L13.592 22.0036C13.5803 22.045 13.5787 22.0887 13.5873 22.1309C13.596 22.1731 13.6147 22.2127 13.642 22.2462C13.6692 22.2798 13.7041 22.3065 13.7438 22.324C13.7835 22.3415 13.8268 22.3494 13.8702 22.347H17.8539C18.0175 22.3408 18.1746 22.2814 18.3007 22.178C18.4269 22.0746 18.5152 21.9328 18.552 21.7747L19.1556 18.6895H23.0868C23.2507 18.6837 23.408 18.6237 23.5336 18.519C23.6591 18.4144 23.7457 18.2711 23.7796 18.112L24.3937 14.9904C24.4041 14.9487 24.4048 14.9053 24.3956 14.8633C24.3865 14.8214 24.3678 14.7821 24.3409 14.7484C24.3141 14.7148 24.2798 14.6877 24.2407 14.6692C24.2016 14.6507 24.1588 14.6413 24.1155 14.6418H19.9219L20.7197 10.5889H24.6771C24.8369 10.5764 24.9883 10.5129 25.1085 10.4078C25.2287 10.3027 25.3112 10.1618 25.3437 10.0062Z" fill="#636363"/>
<path d="M51.279 22.1432C51.2088 22.2193 51.1211 22.2776 51.0233 22.3129C50.9255 22.3482 50.8206 22.3596 50.7174 22.3461H47.2008C46.7127 22.3461 46.5185 22.1275 46.6234 21.6853L48.2558 13.361C48.4517 12.3899 48.4307 11.7447 48.1928 11.4256C48.0398 11.2497 47.8466 11.1126 47.6293 11.0257C47.412 10.9388 47.1769 10.9047 46.9436 10.9262C46.4407 10.9485 45.9445 11.0504 45.474 11.2279C44.9372 11.4032 44.4114 11.6099 43.8994 11.847L43.6107 13.3038L41.9994 21.6853C41.9589 21.8496 41.8877 22.0049 41.7895 22.1432C41.715 22.2211 41.6227 22.2802 41.5205 22.3155C41.4182 22.3508 41.3088 22.3613 41.2016 22.3461H37.6693C37.2022 22.3461 37.0185 22.1275 37.1444 21.6853L38.7768 13.2518C38.9447 12.3621 38.9237 11.7534 38.7085 11.4256C38.5706 11.2458 38.3875 11.1051 38.1775 11.0174C37.9675 10.9298 37.738 10.8983 37.5118 10.9262C37.0152 10.9462 36.5247 11.0428 36.058 11.2123C35.5049 11.3864 34.9647 11.5985 34.4414 11.847L32.5519 21.6853C32.5058 21.8504 32.4293 22.0056 32.3262 22.1432C32.2464 22.2198 32.1503 22.2779 32.045 22.313C31.9396 22.3481 31.8277 22.3594 31.7173 22.3461H28.2008C27.7284 22.3461 27.5499 22.1275 27.6759 21.6853L30.4577 7.41957C30.4891 7.22457 30.5786 7.04337 30.7149 6.8993C30.7938 6.83173 30.8855 6.78038 30.9846 6.74823C31.0837 6.71608 31.1883 6.70376 31.2922 6.712H34.8088C35.108 6.712 35.2812 6.78484 35.3337 6.93051C35.3812 7.08658 35.3812 7.2531 35.3337 7.40916L35.1762 8.14794L35.2077 8.17916C35.9729 7.64173 36.808 7.20945 37.6903 6.8941C38.5038 6.59625 39.3634 6.44132 40.2306 6.43626C41.0715 6.40904 41.9062 6.58773 42.6607 6.95653C42.9806 7.12092 43.2607 7.35209 43.4818 7.63411C43.7029 7.91613 43.8597 8.24231 43.9414 8.59017C44.8343 7.96757 45.7936 7.44416 46.8019 7.02937C47.7376 6.63084 48.7438 6.4204 49.7621 6.41025C50.6396 6.35007 51.516 6.54152 52.2867 6.96173C52.8157 7.30248 53.2104 7.81313 53.4047 8.40808C53.6035 9.0545 53.6643 9.7349 53.5831 10.4059C53.5044 11.1447 53.3942 11.8835 53.2472 12.6222L51.4889 21.6853C51.4439 21.848 51.3731 22.0026 51.279 22.1432Z" fill="#636363"/>
<path d="M54.3892 17.3108C54.3917 16.6255 54.4514 15.9416 54.5677 15.2661C54.6831 14.5794 54.8301 13.9082 54.9981 13.2527C55.2218 12.4241 55.5223 11.6177 55.8956 10.8439C56.2822 10.0252 56.8158 9.28306 57.4702 8.65353C58.2132 7.97278 59.0833 7.44256 60.0315 7.09273C61.251 6.65875 62.5415 6.45408 63.8367 6.48922C64.5636 6.48615 65.2881 6.57177 65.9939 6.74415C66.6443 6.89331 67.2627 7.15579 67.8205 7.51935C68.3413 7.85698 68.7747 8.31148 69.0854 8.84603C69.4059 9.42201 69.567 10.0718 69.5525 10.7294C69.6057 11.8227 69.2465 12.8965 68.5448 13.7418C67.8559 14.5135 66.9951 15.1156 66.0307 15.5003C64.9913 15.9237 63.901 16.2122 62.787 16.3587C61.6218 16.5148 60.2257 16.6344 59.2442 16.6761C59.1358 17.0448 59.0776 17.4262 59.071 17.8102C59.071 18.7623 60.7138 18.8508 61.034 18.8976C62.2464 19.0537 64.708 18.7519 66.5135 18.4346C66.7011 18.3861 66.8981 18.3861 67.0857 18.4346C67.2379 18.4866 67.3113 18.6635 67.3113 18.9548V20.474C67.3391 20.7902 67.2657 21.1069 67.1014 21.3793C66.8493 21.6277 66.5364 21.807 66.1934 21.8996C65.7857 22.0405 65.3682 22.1518 64.9442 22.2325C64.4771 22.3262 63.9837 22.4042 63.4746 22.4562C62.9655 22.5083 62.4249 22.5499 61.9367 22.5811C61.4486 22.6123 60.95 22.6279 60.4986 22.6279C59.6601 22.6478 58.8223 22.5622 58.0055 22.373C57.304 22.2062 56.6481 21.8882 56.0845 21.4417C55.5422 20.9928 55.1157 20.422 54.8406 19.7769C54.5186 18.9949 54.3649 18.155 54.3892 17.3108ZM64.9757 11.3381C64.9809 11.1502 64.9446 10.9634 64.8693 10.7909C64.7941 10.6184 64.6817 10.4642 64.5401 10.3392C64.2006 10.057 63.7645 9.91538 63.3224 9.9438C62.7665 9.93444 62.2198 10.0844 61.7478 10.3756C61.3659 10.6595 61.0417 11.0125 60.7925 11.4162C60.5188 11.8606 60.3036 12.3379 60.1522 12.8365C59.9895 13.3568 59.9948 13.2943 59.8688 13.7886C62.4931 13.9134 64.1622 13.0706 64.4876 12.7064C64.8171 12.3268 64.9913 11.8387 64.9757 11.3381Z" fill="#636363"/>
<path d="M80.7007 20.9208C80.7121 21.0353 80.6993 21.1508 80.6632 21.2601C80.627 21.3694 80.5683 21.47 80.4907 21.5556C80.3487 21.7355 80.1546 21.868 79.9343 21.9354C79.5095 22.0686 79.0765 22.1746 78.6379 22.2527C78.1761 22.336 77.7352 22.4088 77.31 22.4608C76.8849 22.5128 76.4755 22.5493 76.0924 22.5701C75.7092 22.5909 75.389 22.6013 75.1371 22.6013C74.3306 22.6403 73.526 22.4943 72.7857 22.1747C72.2686 21.9335 71.8382 21.5414 71.5523 21.0509C71.2895 20.5576 71.1577 20.0062 71.1691 19.4485C71.1714 18.8142 71.2364 18.1816 71.3633 17.5599L72.77 10.4947H71.3896C71.1324 10.4947 70.9644 10.4374 70.891 10.3178C70.8118 10.1558 70.795 9.97083 70.8437 9.7975L71.3213 7.41987C71.3483 7.22663 71.4323 7.04561 71.5628 6.8996C71.7198 6.77117 71.9217 6.70946 72.1244 6.72791H73.5625L74.1609 3.68435C74.3236 3.06002 74.5598 2.87793 75.1109 2.87793H78.533C79.0578 2.87793 78.9738 3.2057 78.9319 3.46063L78.2968 6.72791H81.5562C81.8553 6.72791 82.0285 6.77994 82.081 6.88399C82.134 7.05345 82.134 7.23481 82.081 7.40426L81.5982 9.8131C81.5739 10.0005 81.5036 10.1792 81.3935 10.3334C81.3132 10.4033 81.2187 10.4553 81.1163 10.4858C81.014 10.5163 80.9062 10.5246 80.8004 10.5103H77.5042L76.381 16.3893C76.3237 16.6462 76.2868 16.9071 76.2708 17.1697C76.2547 17.3521 76.2989 17.5347 76.3968 17.69C76.5311 17.8508 76.7159 17.9625 76.9216 18.0073C77.265 18.0905 77.6181 18.1273 77.9714 18.1166C78.2303 18.1166 78.5662 18.1062 78.9791 18.0854C79.392 18.0646 79.8014 18.0333 80.2073 17.9917C80.3845 17.9831 80.562 18.0042 80.7321 18.0542C80.8476 18.0958 80.8949 18.2987 80.8739 18.6577L80.7007 20.9208Z" fill="#636363"/>
<path d="M96.5316 21.6493C96.5085 21.8225 96.4417 21.9871 96.3374 22.128C96.2608 22.2097 96.1655 22.2722 96.0597 22.3102C95.9538 22.3482 95.8403 22.3606 95.7286 22.3465H92.1175C91.8394 22.3465 91.6714 22.2892 91.5927 22.1748C91.543 22.0155 91.543 21.845 91.5927 21.6857L91.7554 20.8897L91.7239 20.8585C90.9271 21.3893 90.0733 21.8307 89.1783 22.1748C88.4388 22.4533 87.6548 22.5978 86.8637 22.6014C85.2856 22.6014 84.2026 22.1956 83.6148 21.384C82.9831 20.4076 82.6766 19.2594 82.7382 18.1011C82.7402 17.5652 82.7771 17.0299 82.8485 16.4987C82.9219 15.942 83.0112 15.3541 83.1214 14.7402C83.3262 13.6054 83.6157 12.4872 83.9874 11.3948C84.3056 10.4767 84.7718 9.61579 85.3678 8.84552C85.916 8.14359 86.6224 7.57874 87.4305 7.19627C88.3814 6.7794 89.4144 6.57853 90.4537 6.60837C91.1036 6.62391 91.7489 6.72004 92.3747 6.89451C93.0654 7.07403 93.7303 7.33976 94.3535 7.68532L94.4847 7.16505C94.4909 7.08521 94.5138 7.0075 94.5517 6.93678C94.5896 6.86606 94.6418 6.80386 94.7051 6.75404C94.8549 6.68068 95.0211 6.64664 95.188 6.65519H98.7361C99.0352 6.65519 99.2084 6.72283 99.2609 6.84769C99.307 7.0181 99.307 7.19755 99.2609 7.36796L96.5316 21.6493ZM91.283 10.5988C90.8727 10.5917 90.4643 10.6551 90.0758 10.7861C89.7494 10.9145 89.4606 11.122 89.236 11.3896C88.9207 11.8766 88.6685 12.401 88.4855 12.9504C88.3033 13.4789 88.1595 14.0196 88.0551 14.5685C87.9067 15.2689 87.8206 15.981 87.7979 16.6964C87.7374 17.1664 87.8573 17.6418 88.1338 18.0283C88.4313 18.2607 88.8059 18.3739 89.1836 18.3456C89.802 18.315 90.414 18.2066 91.0048 18.023C91.4938 17.8691 91.9638 17.6614 92.4062 17.4039L93.6554 11.1295C92.9077 10.7882 92.0957 10.6073 91.2725 10.5988H91.283Z" fill="#636363"/>
<path d="M113.49 21.8107C113.471 21.9679 113.389 22.111 113.263 22.2085C113.137 22.3061 112.977 22.3501 112.819 22.331H111.475C111.113 22.331 110.95 22.1541 111.06 21.8107L112.913 12.4459C113.029 11.8555 113.099 11.2572 113.123 10.6562C113.151 10.2715 113.084 9.88589 112.929 9.5324C112.861 9.39719 112.767 9.27684 112.652 9.17852C112.536 9.0802 112.402 9.00591 112.257 8.9601C111.869 8.84521 111.465 8.79252 111.06 8.80402C110.584 8.81764 110.111 8.89106 109.654 9.02254C109.097 9.17341 108.551 9.3399 108.006 9.5428C107.46 9.74571 106.956 9.9278 106.457 10.1307C105.959 10.3336 105.591 10.4949 105.334 10.6198L103.13 21.8419C103.11 21.9992 103.028 22.1422 102.902 22.2398C102.776 22.3373 102.616 22.3813 102.458 22.3622H101.146C100.783 22.3622 100.647 22.1853 100.731 21.8419L104.888 0.521356C104.91 0.374784 104.984 0.241081 105.098 0.145305C105.212 0.0495293 105.358 -0.0017462 105.507 0.00108808H106.819C107.203 0.00108808 107.344 0.183182 107.297 0.521356L105.722 8.5699H105.791C106.085 8.40342 106.462 8.20051 106.924 7.96639C107.413 7.72354 107.914 7.50646 108.425 7.31606C108.981 7.11314 109.547 6.93948 110.121 6.79579C110.68 6.65192 111.254 6.57679 111.832 6.57207C112.646 6.53048 113.458 6.68396 114.199 7.0195C114.719 7.27781 115.131 7.70858 115.364 8.23693C115.6 8.82655 115.693 9.46255 115.637 10.0943C115.587 10.8812 115.48 11.6636 115.317 12.4355L113.49 21.8107Z" fill="#636363"/>
<path d="M128.323 21.8106C128.313 21.9588 128.243 22.0967 128.13 22.1943C128.017 22.2918 127.869 22.3409 127.72 22.3309H126.408C126.025 22.3309 125.883 22.154 125.962 21.8106L126.182 20.6036C125.335 21.1127 124.458 21.5731 123.558 21.9823C122.536 22.4325 121.427 22.6546 120.309 22.6326C118.839 22.6326 117.789 22.2684 117.16 21.5401C116.53 20.8117 116.215 19.7399 116.215 18.3248C116.214 17.7647 116.249 17.2052 116.32 16.6495C116.393 16.0356 116.493 15.4217 116.619 14.8078C116.843 13.625 117.153 12.46 117.548 11.322C117.867 10.3878 118.354 9.51878 118.986 8.75707C119.575 8.06472 120.322 7.52088 121.164 7.17025C122.169 6.79128 123.239 6.61441 124.313 6.64998C125.011 6.66577 125.704 6.76713 126.376 6.95173C127.173 7.15314 127.945 7.43921 128.68 7.80497L128.712 7.77376L128.806 7.32633C128.813 7.25696 128.834 7.18983 128.87 7.12962C128.905 7.06942 128.953 7.01758 129.011 6.97775C129.172 6.9271 129.341 6.90594 129.51 6.91532H130.701C130.937 6.91532 131.084 6.95174 131.152 7.02978C131.221 7.10782 131.226 7.25349 131.184 7.48761L128.323 21.8106ZM128.323 9.7976C126.939 9.16993 125.437 8.83504 123.915 8.8143C123.297 8.79863 122.682 8.90108 122.104 9.11605C121.586 9.32825 121.139 9.67966 120.813 10.1306C120.401 10.7005 120.083 11.3307 119.868 11.9983C119.558 12.9367 119.32 13.8967 119.154 14.8702C119.023 15.5466 118.923 16.1553 118.85 16.7068C118.784 17.1584 118.747 17.6136 118.739 18.0699C118.739 19.0636 118.923 19.7087 119.296 20.0053C119.79 20.3356 120.381 20.4914 120.975 20.4475C121.43 20.4388 121.881 20.3741 122.319 20.255C122.852 20.1255 123.378 19.9675 123.894 19.7815C124.418 19.589 124.943 19.3965 125.41 19.1936C125.878 18.9907 126.276 18.819 126.576 18.6734L128.323 9.7976Z" fill="#636363"/>
<path d="M143.87 8.75158C143.847 8.82618 143.805 8.89401 143.749 8.94928C143.694 9.00455 143.625 9.04561 143.55 9.06894C143.363 9.11303 143.169 9.1236 142.978 9.10016L140.962 8.89205C140.282 8.82045 139.599 8.78398 138.915 8.78279C138.439 8.77989 137.963 8.81644 137.493 8.89205C137.092 8.9529 136.706 9.08697 136.354 9.28745C136.041 9.47061 135.782 9.73267 135.604 10.047C135.408 10.4284 135.315 10.8528 135.331 11.2801C135.319 11.5946 135.409 11.9045 135.588 12.1645C135.765 12.4019 135.988 12.6017 136.244 12.7524C136.536 12.9177 136.848 13.0453 137.173 13.1322C137.523 13.2259 137.873 13.3039 138.223 13.3664C138.564 13.4288 138.994 13.5328 139.519 13.6681C140.051 13.8104 140.561 14.0221 141.036 14.2976C141.531 14.589 141.957 14.983 142.285 15.4526C142.648 16.0076 142.831 16.6593 142.81 17.3204C142.846 18.2193 142.657 19.1131 142.259 19.9217C141.91 20.5755 141.399 21.1306 140.773 21.5346C140.113 21.9472 139.379 22.2315 138.611 22.3722C137.761 22.5308 136.899 22.6092 136.034 22.6063C135.628 22.6063 135.187 22.5907 134.711 22.5595C134.228 22.5283 133.767 22.4815 133.32 22.419C132.874 22.3566 132.449 22.2785 132.056 22.1953C131.718 22.129 131.391 22.0225 131.079 21.8779C130.965 21.815 130.878 21.7117 130.836 21.5884C130.794 21.4652 130.8 21.3309 130.854 21.212L131.111 20.5461C131.134 20.4639 131.175 20.3876 131.23 20.3221C131.285 20.2567 131.354 20.2035 131.431 20.1663C131.586 20.1226 131.749 20.112 131.909 20.135L132.958 20.2599C133.357 20.3067 133.756 20.3432 134.16 20.3744L135.341 20.4524C135.73 20.4524 136.044 20.4836 136.302 20.4836C136.829 20.4876 137.356 20.4458 137.876 20.3588C138.317 20.2847 138.743 20.1388 139.136 19.9269C139.493 19.733 139.788 19.4425 139.986 19.0893C140.204 18.6572 140.309 18.1777 140.291 17.695C140.321 17.3802 140.262 17.0634 140.12 16.7803C139.978 16.4971 139.759 16.2589 139.488 16.0926C138.893 15.7656 138.244 15.5454 137.572 15.4422C137.065 15.3687 136.562 15.268 136.065 15.1405C135.514 15.01 134.984 14.8033 134.491 14.5266C134.026 14.2407 133.629 13.8592 133.326 13.408C132.978 12.8824 132.805 12.2619 132.832 11.6339C132.811 10.8159 132.991 10.0052 133.357 9.27185C133.681 8.64254 134.162 8.1054 134.753 7.71104C135.369 7.30603 136.054 7.01516 136.774 6.8526C137.557 6.67098 138.358 6.58019 139.162 6.58206C139.461 6.58206 139.829 6.58206 140.27 6.61328C140.711 6.64449 141.157 6.68091 141.619 6.74334C142.08 6.80577 142.516 6.88902 142.931 6.98787C143.291 7.06759 143.642 7.18082 143.98 7.32604C144.043 7.34274 144.099 7.37728 144.142 7.42537C144.185 7.47347 144.213 7.533 144.222 7.59658C144.231 7.72161 144.215 7.84728 144.175 7.96597L143.87 8.75158Z" fill="#636363"/>
<path d="M156.821 21.8105C156.8 21.9671 156.718 22.1094 156.592 22.2066C156.467 22.3039 156.307 22.3485 156.149 22.3308H154.805C154.443 22.3308 154.281 22.1539 154.391 21.8105L156.244 12.4457C156.357 11.8549 156.427 11.2568 156.453 10.656C156.479 10.2714 156.412 9.88642 156.259 9.53217C156.192 9.39697 156.098 9.27661 155.982 9.17829C155.867 9.07997 155.732 9.00569 155.587 8.95988C155.2 8.84499 154.796 8.79229 154.391 8.8038C153.914 8.81741 153.442 8.89083 152.984 9.02231C152.428 9.17319 151.877 9.33967 151.336 9.54258C150.795 9.74548 150.286 9.92758 149.761 10.1305C149.237 10.3334 148.901 10.4947 148.644 10.6195L146.444 21.8105C146.423 21.9671 146.341 22.1094 146.216 22.2066C146.09 22.3039 145.931 22.3485 145.773 22.3308H144.46C144.098 22.3308 143.936 22.1539 144.046 21.8105L148.218 0.521129C148.24 0.370867 148.318 0.234197 148.437 0.13794C148.555 0.0416834 148.706 -0.00720826 148.859 0.000860722H150.166C150.554 0.000860722 150.691 0.182955 150.649 0.521129L149.069 8.59049H149.132C149.431 8.424 149.809 8.2211 150.271 7.98698C150.759 7.74318 151.26 7.52608 151.772 7.33664C152.327 7.13373 152.893 6.96006 153.467 6.81637C154.026 6.67251 154.601 6.59737 155.178 6.59266C155.992 6.55106 156.804 6.70454 157.545 7.04009C158.064 7.29982 158.476 7.73014 158.71 8.25752C158.946 8.84714 159.039 9.48314 158.983 10.1149C158.93 10.9016 158.823 11.6838 158.663 12.4561L156.821 21.8105Z" fill="#636363"/>
<path d="M5.16444 26.5345H5.46886C5.59539 26.5398 5.72154 26.552 5.84676 26.5709C5.98322 26.5709 6.11444 26.6073 6.2509 26.6333C6.37468 26.6565 6.49594 26.6914 6.61306 26.7374C6.67604 26.7374 6.70753 26.7894 6.71803 26.8154C6.72587 26.8307 6.72995 26.8477 6.72995 26.8648C6.72995 26.882 6.72587 26.8989 6.71803 26.9143L6.67079 27.138C6.65995 27.1639 6.64584 27.1884 6.6288 27.2108C6.61175 27.2195 6.59286 27.224 6.57369 27.224C6.55453 27.224 6.53563 27.2195 6.51858 27.2108L5.88875 27.1328C5.65256 27.1328 5.41112 27.0963 5.16444 27.0963C4.90587 27.0851 4.64936 27.1464 4.42438 27.2732C4.24089 27.3909 4.09376 27.5566 3.99924 27.7519C3.89876 27.9723 3.83665 28.208 3.81554 28.449C3.81554 28.7144 3.77355 28.9693 3.77355 29.2867C3.77221 29.5477 3.78975 29.8085 3.82604 30.0671C3.85102 30.2986 3.91675 30.524 4.02023 30.733C4.11702 30.9213 4.26407 31.0797 4.44537 31.1909C4.66248 31.3182 4.91246 31.3797 5.16444 31.3677C5.41637 31.3677 5.65256 31.3677 5.87825 31.3313L6.50808 31.2533C6.57107 31.2533 6.60781 31.2533 6.6288 31.2533C6.64584 31.2757 6.65995 31.3002 6.67079 31.3261L6.71278 31.5394C6.72048 31.5737 6.72048 31.6092 6.71278 31.6435C6.71278 31.6435 6.67079 31.6903 6.61831 31.7111C6.50751 31.7596 6.39119 31.7945 6.2719 31.8152C6.13683 31.8454 6.00014 31.8679 5.8625 31.8828L5.46886 31.9192H5.15919C4.79628 31.9354 4.43515 31.8602 4.10946 31.7007C3.85082 31.561 3.63366 31.3565 3.47963 31.1076C3.32069 30.8481 3.21543 30.5598 3.16996 30.2596C3.11485 29.9276 3.08677 29.5919 3.08598 29.2555C3.08475 28.9071 3.11107 28.5592 3.16471 28.2149C3.20917 27.9045 3.31056 27.6047 3.46388 27.3305C3.61309 27.0716 3.82853 26.8562 4.08847 26.7061C4.42562 26.556 4.79679 26.4968 5.16444 26.5345Z" fill="#636363"/>
<path d="M12.6697 29.1878C12.6672 29.5182 12.6462 29.8482 12.6067 30.1763C12.5694 30.4914 12.4771 30.7978 12.3338 31.0815C12.1878 31.351 11.9723 31.5772 11.7092 31.7371C11.3613 31.9268 10.9669 32.0169 10.5703 31.9972C10.2955 32.0039 10.0217 31.9616 9.76199 31.8723C9.55422 31.8047 9.36296 31.6948 9.20039 31.5498C9.04966 31.4149 8.92668 31.2523 8.83823 31.0711C8.74822 30.8815 8.67957 30.6826 8.63354 30.478C8.58591 30.2674 8.55433 30.0535 8.53906 29.8381C8.53906 29.6196 8.53906 29.4011 8.53906 29.1878C8.53906 28.9745 8.53906 28.8444 8.56531 28.6675C8.5806 28.469 8.61398 28.2722 8.66503 28.0796C8.71223 27.883 8.7827 27.6927 8.87497 27.5125C8.96838 27.3314 9.09268 27.1677 9.24238 27.0287C9.40578 26.881 9.5965 26.7662 9.80398 26.6905C10.0517 26.5936 10.3146 26.5408 10.5808 26.5344C10.9623 26.5176 11.3419 26.5982 11.683 26.7685C11.9447 26.9106 12.1638 27.1188 12.3181 27.372C12.4693 27.6352 12.5674 27.925 12.6067 28.2253C12.6516 28.5441 12.6726 28.8658 12.6697 29.1878ZM12.0504 29.2658C12.0513 28.9541 12.0285 28.6428 11.9822 28.3345C11.9469 28.094 11.8649 27.8625 11.7407 27.653C11.6343 27.4724 11.4776 27.3261 11.2893 27.2316C11.0669 27.1262 10.8219 27.0762 10.5755 27.0859C10.3406 27.0791 10.1078 27.131 9.89846 27.2368C9.71787 27.3413 9.56916 27.4923 9.46807 27.6738C9.35121 27.8876 9.27304 28.12 9.23713 28.3605C9.18814 28.6598 9.16531 28.9627 9.1689 29.2658C9.16793 29.5616 9.18722 29.8571 9.22663 30.1503C9.26314 30.389 9.34129 30.6196 9.45757 30.8318C9.55713 31.0144 9.70621 31.1658 9.88796 31.2688C10.1027 31.381 10.3435 31.4349 10.586 31.4249C10.8341 31.4352 11.081 31.3852 11.3051 31.2792C11.494 31.1813 11.6519 31.0337 11.7617 30.8526C11.878 30.6431 11.9528 30.4136 11.9822 30.1763C12.0312 29.8753 12.0541 29.5707 12.0504 29.2658Z" fill="#636363"/>
<path d="M15.6221 27.7254V31.7887C15.6239 31.8074 15.6214 31.8262 15.6148 31.8437C15.6082 31.8613 15.5977 31.8771 15.5841 31.8901C15.5705 31.9031 15.5541 31.9129 15.5362 31.9188C15.5182 31.9246 15.4992 31.9264 15.4804 31.924H15.1235C15.0238 31.924 14.9766 31.8772 14.9766 31.7887V26.7265C14.9766 26.6433 15.0186 26.6069 15.1078 26.6069H15.4437C15.4661 26.6039 15.4889 26.6057 15.5105 26.6119C15.5322 26.6182 15.5524 26.6289 15.5697 26.6433C15.5997 26.6692 15.6262 26.6989 15.6484 26.7317L17.8528 30.0875L18.2779 30.7586V26.7473C18.2728 26.7066 18.2842 26.6654 18.3094 26.6329C18.3432 26.6201 18.3806 26.6201 18.4144 26.6329H18.7556C18.7859 26.6207 18.8198 26.6207 18.8501 26.6329C18.8753 26.6654 18.8867 26.7066 18.8815 26.7473V31.7939C18.8815 31.8824 18.8396 31.924 18.7556 31.924H18.4459C18.4 31.9274 18.3541 31.9165 18.3147 31.8928C18.2845 31.8631 18.2581 31.8299 18.236 31.7939L16.084 28.4902L15.6221 27.7254Z" fill="#636363"/>
<path d="M23.2763 26.5346H23.5755C23.7038 26.5398 23.8317 26.5519 23.9586 26.5711C24.0951 26.5711 24.2263 26.6075 24.3628 26.6335C24.4865 26.6567 24.6078 26.6915 24.7249 26.7376C24.7879 26.7376 24.8194 26.7896 24.8299 26.8156C24.8403 26.8477 24.8403 26.8823 24.8299 26.9144L24.7827 27.1382C24.7718 27.1641 24.7577 27.1886 24.7407 27.211C24.7236 27.2197 24.7047 27.2242 24.6856 27.2242C24.6664 27.2242 24.6475 27.2197 24.6304 27.211L24.0006 27.133C23.7644 27.133 23.523 27.0965 23.2763 27.0965C23.0177 27.0847 22.761 27.1461 22.5362 27.2734C22.3527 27.3911 22.2056 27.5568 22.1111 27.7521C22.0106 27.9725 21.9485 28.2082 21.9274 28.4492C21.9274 28.7146 21.8854 28.9695 21.8854 29.2869C21.885 29.5477 21.9008 29.8083 21.9326 30.0673C21.9618 30.2986 22.0292 30.5236 22.1321 30.7332C22.2305 30.9338 22.3855 31.1019 22.5782 31.2171C22.7953 31.3444 23.0453 31.4059 23.2973 31.394C23.5492 31.394 23.7854 31.394 24.0111 31.3575L24.6409 31.2795C24.7039 31.2795 24.7407 31.2795 24.7617 31.2795C24.7787 31.3019 24.7928 31.3264 24.8036 31.3523L24.8456 31.5656C24.8533 31.5999 24.8533 31.6354 24.8456 31.6697C24.8456 31.6697 24.8036 31.7165 24.7512 31.7373C24.6404 31.7858 24.524 31.8207 24.4048 31.8414C24.2697 31.8716 24.133 31.8941 23.9954 31.909L23.6017 31.9454H23.292C22.9291 31.9616 22.568 31.8864 22.2423 31.7269C21.9837 31.5872 21.7665 31.3827 21.6125 31.1338C21.4535 30.8743 21.3483 30.586 21.3028 30.2858C21.2451 29.9542 21.217 29.6182 21.2188 29.2817C21.2176 28.9333 21.2439 28.5854 21.2976 28.2411C21.342 27.9307 21.4434 27.6309 21.5967 27.3567C21.7459 27.0978 21.9614 26.8824 22.2213 26.7324C22.5497 26.5769 22.9133 26.5088 23.2763 26.5346Z" fill="#636363"/>
<path d="M30.7818 29.1878C30.7822 29.5128 30.7647 29.8376 30.7293 30.1607C30.6903 30.4761 30.5962 30.7825 30.4511 31.0659C30.306 31.3418 30.0884 31.5737 29.8213 31.7371C29.4733 31.9268 29.079 32.0169 28.6823 31.9972C28.4075 32.0039 28.1338 31.9616 27.8741 31.8723C27.6626 31.806 27.4676 31.6961 27.302 31.5498C27.1512 31.4149 27.0282 31.2523 26.9398 31.0711C26.8498 30.8815 26.7811 30.6826 26.7351 30.478C26.6875 30.2674 26.6559 30.0535 26.6406 29.8381C26.6406 29.6196 26.6406 29.4011 26.6406 29.1878C26.6406 28.9745 26.6406 28.8444 26.6669 28.6675C26.6843 28.4616 26.7212 28.2578 26.7771 28.0588C26.8243 27.8622 26.8948 27.6719 26.987 27.4917C27.0804 27.3106 27.2047 27.1469 27.3544 27.0078C27.5178 26.8602 27.7086 26.7454 27.916 26.6697C28.165 26.5799 28.4279 26.5342 28.6928 26.5344C29.0744 26.5176 29.4539 26.5982 29.7951 26.7685C30.0652 26.909 30.2919 27.1194 30.4511 27.3772C30.5999 27.6392 30.6961 27.9271 30.7346 28.2253C30.7741 28.5445 30.7899 28.8662 30.7818 29.1878ZM30.1625 29.2658C30.1644 28.9539 30.1398 28.6424 30.089 28.3345C30.0578 28.0938 29.9775 27.8619 29.8528 27.653C29.7463 27.4724 29.5896 27.3261 29.4014 27.2316C29.1787 27.1268 28.9339 27.0768 28.6876 27.0859C28.4527 27.0791 28.2199 27.131 28.0105 27.2368C27.8299 27.3413 27.6812 27.4923 27.5801 27.6738C27.4633 27.8876 27.3851 28.12 27.3492 28.3605C27.3072 28.6604 27.2914 28.9633 27.302 29.2658C27.301 29.5616 27.3203 29.8571 27.3597 30.1503C27.3929 30.3884 27.4675 30.619 27.5801 30.8318C27.6797 31.0144 27.8288 31.1658 28.0105 31.2688C28.2252 31.381 28.4661 31.4349 28.7086 31.4249C28.9479 31.431 29.1852 31.3811 29.4014 31.2792C29.5903 31.1813 29.7483 31.0337 29.858 30.8526C29.9798 30.6443 30.06 30.4146 30.0942 30.1763C30.1433 29.8753 30.1661 29.5707 30.1625 29.2658Z" fill="#636363"/>
<path d="M36.5033 31.7893C36.5097 31.8041 36.513 31.8201 36.513 31.8362C36.513 31.8522 36.5097 31.8682 36.5033 31.883C36.4955 31.8965 36.4839 31.9076 36.47 31.915C36.4561 31.9224 36.4403 31.9257 36.4246 31.9246H35.9627C35.928 31.9311 35.8924 31.9311 35.8578 31.9246C35.8258 31.9043 35.8003 31.8755 35.7843 31.8414L34.7346 29.7083H33.6848V31.7893C33.6848 31.883 33.6376 31.935 33.5484 31.935H33.202C33.1835 31.9353 33.1652 31.9315 33.1484 31.924C33.1315 31.9164 33.1166 31.9053 33.1045 31.8914C33.0925 31.8775 33.0837 31.8612 33.0788 31.8435C33.0739 31.8259 33.0729 31.8074 33.076 31.7893V26.7323C33.076 26.6491 33.1232 26.6075 33.2177 26.6075H34.8605C35.0578 26.6063 35.2542 26.6343 35.4431 26.6907C35.6345 26.7427 35.8131 26.833 35.968 26.956C36.1167 27.0851 36.2349 27.2449 36.3144 27.4243C36.3958 27.6385 36.4332 27.8667 36.4246 28.0954C36.4232 28.2497 36.4038 28.4034 36.3669 28.5533C36.3284 28.7032 36.2683 28.8469 36.1884 28.9799C36.1036 29.1171 35.9952 29.2386 35.8683 29.3389C35.726 29.4464 35.5662 29.5291 35.3959 29.5834L36.5033 31.7893ZM35.7685 28.0954C35.7735 27.9365 35.743 27.7784 35.6793 27.6324C35.6237 27.5202 35.5407 27.4237 35.4379 27.3514C35.3351 27.2818 35.219 27.234 35.0967 27.211C34.969 27.184 34.8389 27.1701 34.7083 27.1693H33.6953V29.136H34.6926C34.816 29.1362 34.9391 29.124 35.06 29.0995C35.185 29.0774 35.3034 29.0276 35.4064 28.9539C35.5198 28.8757 35.6089 28.7675 35.6636 28.6417C35.7408 28.4701 35.7767 28.2831 35.7685 28.0954Z" fill="#636363"/>
<path d="M42.5231 29.2509C42.525 29.5999 42.4934 29.9483 42.4286 30.2914C42.3754 30.5936 42.2611 30.8821 42.0927 31.1395C41.9266 31.3967 41.6924 31.6037 41.4156 31.7378C41.0854 31.883 40.727 31.954 40.3659 31.9459H38.849C38.8013 31.9508 38.7533 31.9399 38.7126 31.9147C38.688 31.8856 38.6749 31.8486 38.6758 31.8106V26.7432C38.6758 26.6547 38.7283 26.6131 38.8228 26.6131H40.3659C40.7266 26.6039 41.0849 26.6731 41.4156 26.816C41.6804 26.945 41.9079 27.1383 42.0769 27.3779C42.2471 27.6331 42.3631 27.9198 42.4181 28.2208C42.4868 28.5599 42.5219 28.9049 42.5231 29.2509ZM41.8512 29.3237C41.8612 28.9538 41.8188 28.5842 41.7253 28.226C41.6571 27.9875 41.539 27.766 41.3789 27.5756C41.2505 27.4289 41.0832 27.3208 40.896 27.2635C40.7117 27.2113 40.5208 27.1851 40.3291 27.1854H39.2794V31.3476H40.2767C40.4625 31.3482 40.6477 31.3255 40.8278 31.2799C41.0245 31.2335 41.2055 31.1366 41.3526 30.999C41.5244 30.8267 41.6522 30.6162 41.7253 30.3851C41.8211 30.0397 41.8601 29.6814 41.8407 29.3237H41.8512Z" fill="#636363"/>
<path d="M45.3687 31.9241H45.0118C44.9121 31.9241 44.8649 31.8772 44.8649 31.7888V26.7474C44.8617 26.7268 44.8633 26.7058 44.8697 26.6859C44.8761 26.6661 44.887 26.6479 44.9016 26.6329C44.9374 26.621 44.9761 26.621 45.0118 26.6329H45.3687C45.401 26.6218 45.4361 26.6218 45.4684 26.6329C45.483 26.6479 45.494 26.6661 45.5003 26.6859C45.5067 26.7058 45.5084 26.7268 45.5052 26.7474V31.7888C45.5078 31.8072 45.5061 31.8259 45.5002 31.8435C45.4942 31.8611 45.4843 31.8771 45.471 31.8902C45.4578 31.9033 45.4417 31.9132 45.4239 31.9191C45.4061 31.925 45.3873 31.9267 45.3687 31.9241Z" fill="#636363"/>
<path d="M48.264 31.7941C48.2543 31.8356 48.2301 31.8725 48.1958 31.8982C48.1614 31.9072 48.1252 31.9072 48.0908 31.8982H47.6709C47.5974 31.8982 47.5764 31.8565 47.6079 31.7681L49.298 26.7059C49.3043 26.671 49.3233 26.6396 49.3513 26.6176C49.3793 26.5955 49.4145 26.5844 49.4502 26.5862H49.9068C49.9256 26.5836 49.9446 26.5851 49.9628 26.5904C49.9809 26.5958 49.9976 26.605 50.0118 26.6174C50.0347 26.6425 50.051 26.673 50.059 26.7059L51.7491 31.7837C51.7491 31.8617 51.7491 31.8982 51.6861 31.8982H51.1927C51.1621 31.9085 51.1289 31.9085 51.0983 31.8982C51.0761 31.8773 51.0614 31.8499 51.0563 31.8201L50.6574 30.5038H48.6839L48.264 31.7941ZM50.0748 28.6153L49.6864 27.3146H49.6601L49.2822 28.5893L48.8676 29.9524H50.4789L50.0748 28.6153Z" fill="#636363"/>
<path d="M60.5001 31.7893C60.5079 31.8037 60.512 31.8198 60.512 31.8362C60.512 31.8525 60.5079 31.8686 60.5001 31.883C60.4937 31.8966 60.4831 31.9079 60.47 31.9153C60.4568 31.9228 60.4417 31.926 60.4266 31.9246H59.9647C59.93 31.9311 59.8944 31.9311 59.8597 31.9246C59.8278 31.9043 59.8023 31.8755 59.7863 31.8414L58.7365 29.7083H57.6868V31.7893C57.6868 31.883 57.6396 31.935 57.5504 31.935H57.2197C57.2012 31.9376 57.1823 31.9359 57.1645 31.93C57.1468 31.9242 57.1306 31.9143 57.1174 31.9011C57.1042 31.888 57.0942 31.872 57.0882 31.8544C57.0823 31.8368 57.0806 31.8181 57.0832 31.7997V26.7323C57.0832 26.6491 57.1305 26.6075 57.2197 26.6075H58.873C59.0703 26.6063 59.2667 26.6343 59.4556 26.6907C59.6477 26.7408 59.8267 26.8313 59.9805 26.956C60.1324 27.0833 60.2527 27.2435 60.3321 27.4243C60.421 27.6423 60.4638 27.876 60.4581 28.111C60.4593 28.2655 60.4399 28.4194 60.4004 28.5689C60.3637 28.7186 60.3053 28.8623 60.2272 28.9955C60.1423 29.1327 60.034 29.2542 59.907 29.3545C59.7624 29.4614 59.601 29.544 59.4294 29.599L60.5001 31.7893ZM59.76 28.0954C59.7676 27.9363 59.737 27.7776 59.6708 27.6324C59.6187 27.5196 59.5372 27.4226 59.4346 27.3514C59.3314 27.2827 59.2154 27.235 59.0935 27.211C58.964 27.1837 58.8321 27.1698 58.6998 27.1693H57.6921V29.136H58.6841C58.8075 29.1365 58.9306 29.1243 59.0515 29.0995C59.1784 29.0783 59.2987 29.0285 59.4031 28.9539C59.5151 28.8741 59.6038 28.7664 59.6603 28.6417C59.7355 28.4697 59.7697 28.2827 59.76 28.0954Z" fill="#636363"/>
<path d="M65.7229 31.8985C65.6887 31.909 65.6521 31.909 65.6179 31.8985H62.7837C62.6892 31.8985 62.6367 31.8569 62.6367 31.7685V26.7427C62.6367 26.649 62.6892 26.6074 62.7837 26.6074H65.5707C65.6599 26.6074 65.7072 26.649 65.7072 26.7323V27.0549C65.7072 27.1433 65.6547 27.1901 65.5602 27.1901H63.2613V28.8758H65.324C65.4185 28.8758 65.4605 28.9174 65.4605 29.0059V29.318C65.4605 29.4013 65.4185 29.4429 65.324 29.4429H63.2613V31.3523H65.6179C65.7072 31.3523 65.7492 31.3991 65.7492 31.4875V31.7945C65.7525 31.8127 65.7519 31.8314 65.7474 31.8493C65.7428 31.8673 65.7345 31.8841 65.7229 31.8985Z" fill="#636363"/>
<path d="M71.3067 30.4472C71.3132 30.6979 71.263 30.9467 71.1598 31.1756C71.0684 31.3652 70.9315 31.5296 70.7609 31.6543C70.582 31.7781 70.3806 31.8664 70.1678 31.9144C69.9356 31.9692 69.6979 31.9972 69.4592 31.9976H69.0813C68.9396 31.9976 68.7979 31.9976 68.6614 31.9508L68.252 31.8832C68.1383 31.8633 68.0272 31.8301 67.9214 31.7843C67.8636 31.7583 67.8269 31.7323 67.8164 31.7063C67.806 31.6759 67.806 31.643 67.8164 31.6126L67.8741 31.3837C67.8741 31.3265 67.9371 31.3005 68.0106 31.3057L68.3832 31.3473L68.7821 31.3837L69.1548 31.4097H69.454C69.7766 31.4287 70.0973 31.3487 70.3725 31.1808C70.4729 31.1098 70.5539 31.015 70.608 30.905C70.6621 30.7951 70.6876 30.6735 70.6821 30.5513C70.6863 30.397 70.6686 30.2429 70.6297 30.0935C70.598 29.9793 70.5343 29.8765 70.446 29.7969C70.3441 29.7136 70.2262 29.6517 70.0995 29.6148C69.9276 29.5614 69.7523 29.5197 69.5747 29.4899C69.3446 29.4568 69.1167 29.4099 68.8924 29.3495C68.698 29.2989 68.5123 29.22 68.3413 29.1153C68.1867 29.0168 68.0603 28.8807 67.9739 28.7199C67.8774 28.517 67.8323 28.2937 67.8426 28.0696C67.8288 27.8613 67.8616 27.6525 67.9387 27.4582C68.0158 27.2639 68.1354 27.0889 68.2888 26.9458C68.6521 26.6673 69.1059 26.5303 69.5642 26.5608H69.8634L70.2465 26.592L70.6506 26.6545C70.7736 26.6808 70.8947 26.7156 71.0128 26.7585C71.0705 26.7845 71.1073 26.8054 71.1178 26.8366C71.1282 26.8687 71.1282 26.9033 71.1178 26.9354L71.0705 27.1539C71.0599 27.1811 71.0438 27.2059 71.0233 27.2268C71.0233 27.2268 70.9708 27.2268 70.9183 27.2268C70.7399 27.2008 70.5299 27.1747 70.2832 27.1539C70.0444 27.129 69.8044 27.1168 69.5642 27.1175C69.3872 27.1141 69.2105 27.1351 69.0393 27.18C68.9129 27.2136 68.7961 27.276 68.6982 27.362C68.6159 27.4406 68.5561 27.5393 68.525 27.6482C68.4877 27.7678 68.47 27.8925 68.4725 28.0176C68.4661 28.1467 68.4857 28.2758 68.5302 28.3974C68.5724 28.4916 68.6418 28.5713 68.7296 28.6263C68.8407 28.6909 68.9611 28.7382 69.0866 28.7668L69.6114 28.876C69.8424 28.9176 70.0628 28.9645 70.2727 29.0165C70.4603 29.0682 70.6378 29.1509 70.7976 29.261C70.9534 29.3765 71.0778 29.5284 71.1598 29.7032C71.2653 29.9369 71.3155 30.1914 71.3067 30.4472Z" fill="#636363"/>
<path d="M80.225 28.1527C80.2242 28.3409 80.1978 28.5282 80.1462 28.7093C80.0928 28.8987 80.0018 29.0756 79.8786 29.2296C79.7356 29.3948 79.556 29.5248 79.3537 29.6094C79.0992 29.7196 78.8229 29.7712 78.5454 29.7603H77.4957V31.7893C77.4983 31.8077 77.4966 31.8264 77.4907 31.844C77.4847 31.8616 77.4748 31.8776 77.4615 31.8907C77.4483 31.9039 77.4321 31.9138 77.4144 31.9196C77.3966 31.9255 77.3777 31.9272 77.3592 31.9246H77.0181C76.9236 31.9246 76.8711 31.8778 76.8711 31.7893V26.7323C76.8711 26.6491 76.9236 26.6075 77.0181 26.6075H78.5559C78.7815 26.6061 79.0061 26.6376 79.2225 26.7011C79.4168 26.7591 79.5959 26.8586 79.7473 26.9925C79.9027 27.1228 80.0235 27.2889 80.099 27.4763C80.1869 27.691 80.2297 27.9211 80.225 28.1527ZM79.6004 28.1527C79.6118 28.0134 79.5908 27.8734 79.539 27.7435C79.4871 27.6136 79.4057 27.4972 79.3012 27.4035C79.0716 27.234 78.7894 27.1493 78.5034 27.1642H77.4957V29.2036H78.5454C78.7246 29.21 78.9033 29.1799 79.0703 29.1152C79.1948 29.062 79.3046 28.9799 79.3904 28.8758C79.469 28.7756 79.5261 28.6605 79.5584 28.5377C79.5873 28.4149 79.6014 28.2891 79.6004 28.1631V28.1527Z" fill="#636363"/>
<path d="M82.2015 31.7947C82.1976 31.8156 82.1896 31.8356 82.1779 31.8535C82.1662 31.8713 82.151 31.8867 82.1333 31.8988C82.0989 31.9083 82.0626 31.9083 82.0283 31.8988H81.6084C81.5349 31.8988 81.5139 31.8571 81.5454 31.7687L83.2355 26.7065C83.2418 26.6716 83.2608 26.6402 83.2888 26.6182C83.3168 26.5961 83.352 26.585 83.3877 26.5868H83.8443C83.8838 26.5826 83.9233 26.5938 83.9545 26.618C83.9736 26.6449 83.9879 26.6748 83.9965 26.7065L85.6866 31.7843C85.6866 31.8623 85.6866 31.8988 85.6236 31.8988H85.1302C85.0995 31.9083 85.0665 31.9083 85.0358 31.8988C85.0155 31.8766 85.0011 31.8497 84.9938 31.8207L84.5949 30.5044H82.6214L82.2015 31.7947ZM84.0123 28.6159L83.6239 27.3152L83.2407 28.5898L82.8261 29.9529H84.4374L84.0123 28.6159Z" fill="#636363"/>
<path d="M91.1447 31.7893C91.1536 31.8034 91.1583 31.8196 91.1583 31.8362C91.1583 31.8527 91.1536 31.8689 91.1447 31.883C91.1383 31.8966 91.1278 31.9079 91.1146 31.9153C91.1015 31.9228 91.0863 31.926 91.0713 31.9246H90.6094C90.5747 31.9316 90.539 31.9316 90.5044 31.9246C90.4711 31.906 90.4451 31.8766 90.4309 31.8414L89.3812 29.7083H88.3315V31.7893C88.3315 31.883 88.2895 31.935 88.195 31.935H87.8486C87.8301 31.9376 87.8112 31.9359 87.7934 31.93C87.7757 31.9242 87.7595 31.9143 87.7463 31.9011C87.7331 31.888 87.7231 31.872 87.7172 31.8544C87.7112 31.8368 87.7095 31.8181 87.7121 31.7997V26.7323C87.7121 26.6491 87.7541 26.6075 87.8486 26.6075H89.4967C89.694 26.6063 89.8903 26.6343 90.0793 26.6907C90.2707 26.7427 90.4493 26.833 90.6041 26.956C90.756 27.0821 90.8749 27.2428 90.9505 27.4243C91.0437 27.6411 91.0885 27.8754 91.0818 28.111C91.0804 28.2653 91.061 28.419 91.024 28.5689C90.9879 28.7196 90.9276 28.8636 90.8456 28.9955C90.7639 29.135 90.6551 29.257 90.5254 29.3545C90.3831 29.462 90.2233 29.5447 90.053 29.599L91.1447 31.7893ZM90.4099 28.0954C90.4149 27.9365 90.3844 27.7784 90.3207 27.6324C90.2686 27.5196 90.1871 27.4226 90.0845 27.3514C89.9813 27.2827 89.8653 27.235 89.7434 27.211C89.6139 27.1837 89.482 27.1698 89.3497 27.1693H88.3367V29.136H89.334C89.4574 29.1365 89.5805 29.1243 89.7014 29.0995C89.8278 29.0765 89.9477 29.0268 90.053 28.9539C90.165 28.8741 90.2537 28.7664 90.3102 28.6417C90.3854 28.4697 90.4196 28.2827 90.4099 28.0954Z" fill="#636363"/>
<path d="M94.9387 31.1133L95.5528 29.1988L96.3454 26.7275C96.354 26.6922 96.3753 26.6612 96.4051 26.6401C96.435 26.6191 96.4716 26.6095 96.5081 26.613H96.9122C96.9857 26.613 97.0067 26.6546 96.9804 26.7431L95.2851 31.8105C95.2776 31.8454 95.2574 31.8763 95.2283 31.8974C95.1993 31.9185 95.1635 31.9283 95.1277 31.925H94.7025C94.6682 31.9345 94.6319 31.9345 94.5976 31.925C94.5735 31.9049 94.5569 31.8774 94.5503 31.8469L92.8498 26.7587C92.8235 26.6807 92.8498 26.639 92.9232 26.639H93.3379C93.3748 26.6367 93.4114 26.6458 93.4429 26.665C93.468 26.6886 93.4846 26.7197 93.4901 26.7535L94.2984 29.2248L94.9387 31.1133Z" fill="#636363"/>
<path d="M98.8303 31.7947C98.8223 31.8357 98.8 31.8725 98.7673 31.8988C98.7329 31.9078 98.6967 31.9078 98.6623 31.8988H98.2424C98.1637 31.8988 98.1427 31.8571 98.1742 31.7687L99.8642 26.7065C99.8717 26.6712 99.8917 26.6397 99.9206 26.6177C99.9495 26.5958 99.9854 26.5848 100.022 26.5868H100.473C100.513 26.5826 100.552 26.5938 100.583 26.618C100.602 26.6449 100.617 26.6748 100.625 26.7065L102.321 31.7843C102.321 31.8623 102.321 31.8988 102.252 31.8988H101.759C101.728 31.9083 101.695 31.9083 101.665 31.8988C101.644 31.8766 101.63 31.8497 101.623 31.8207L101.224 30.5044H99.2502L98.8303 31.7947ZM100.641 28.6159L100.253 27.3152L99.8695 28.5898L99.4601 29.9529H101.071L100.641 28.6159Z" fill="#636363"/>
<path d="M107.457 31.8985C107.423 31.909 107.387 31.909 107.352 31.8985H104.518C104.418 31.8985 104.371 31.8569 104.371 31.7685V26.7427C104.371 26.649 104.418 26.6074 104.518 26.6074H107.3C107.394 26.6074 107.442 26.649 107.442 26.7323V27.0549C107.442 27.1433 107.389 27.1901 107.295 27.1901H104.98V28.8758H107.079C107.174 28.8758 107.216 28.9174 107.216 29.0059V29.318C107.216 29.4013 107.174 29.4429 107.079 29.4429H104.98V31.3523H107.342C107.431 31.3523 107.473 31.3991 107.473 31.4875V31.7945C107.478 31.812 107.479 31.8303 107.476 31.8482C107.474 31.8661 107.467 31.8832 107.457 31.8985Z" fill="#636363"/>
<path d="M115.063 26.5345H115.362C115.489 26.5394 115.615 26.5515 115.74 26.5709C115.876 26.5709 116.013 26.6073 116.144 26.6333C116.269 26.6573 116.392 26.6921 116.511 26.7374C116.569 26.7374 116.606 26.7894 116.616 26.8154C116.627 26.8475 116.627 26.8821 116.616 26.9143L116.569 27.138C116.559 27.1651 116.542 27.1899 116.522 27.2108C116.522 27.2108 116.47 27.2108 116.412 27.2108L115.787 27.1328C115.546 27.1328 115.304 27.0963 115.063 27.0963C114.803 27.0847 114.544 27.146 114.318 27.2732C114.134 27.3897 113.989 27.5558 113.898 27.7519C113.795 27.972 113.731 28.2077 113.709 28.449C113.709 28.7144 113.672 28.9693 113.672 29.2867C113.672 29.5475 113.687 29.8082 113.719 30.0671C113.746 30.2989 113.813 30.5243 113.919 30.733C114.015 30.9213 114.163 31.0797 114.344 31.1909C114.561 31.3188 114.811 31.3803 115.063 31.3677C115.31 31.3677 115.546 31.3677 115.777 31.3313L116.407 31.2533C116.464 31.2533 116.506 31.2533 116.522 31.2533C116.542 31.2742 116.559 31.299 116.569 31.3261L116.606 31.5394C116.616 31.5734 116.616 31.6095 116.606 31.6435C116.606 31.6435 116.569 31.6903 116.511 31.7111C116.401 31.761 116.285 31.796 116.165 31.8152C116.03 31.8454 115.893 31.8679 115.756 31.8828L115.362 31.9192H115.058C114.695 31.9354 114.334 31.8602 114.008 31.7007C113.749 31.561 113.532 31.3565 113.378 31.1076C113.217 30.8484 113.11 30.5602 113.063 30.2596C113.01 29.9275 112.984 29.5917 112.984 29.2555C112.983 28.9071 113.01 28.5592 113.063 28.2149C113.103 27.9034 113.205 27.6028 113.362 27.3305C113.51 27.0705 113.726 26.8548 113.987 26.7061C114.324 26.556 114.695 26.4968 115.063 26.5345Z" fill="#636363"/>
<path d="M122.103 31.7893C122.111 31.8037 122.115 31.8198 122.115 31.8362C122.115 31.8525 122.111 31.8686 122.103 31.883C122.097 31.8966 122.086 31.9079 122.073 31.9153C122.06 31.9228 122.045 31.926 122.03 31.9246H121.568C121.533 31.9311 121.497 31.9311 121.463 31.9246C121.431 31.9043 121.405 31.8755 121.389 31.8414L120.34 29.7083H119.29V31.7893C119.292 31.8086 119.29 31.8281 119.284 31.8465C119.278 31.865 119.268 31.8818 119.254 31.8957C119.241 31.9097 119.224 31.9205 119.206 31.9273C119.187 31.9341 119.168 31.9367 119.148 31.935H118.802C118.783 31.9376 118.764 31.9359 118.747 31.93C118.729 31.9242 118.713 31.9143 118.699 31.9011C118.686 31.888 118.676 31.872 118.67 31.8544C118.664 31.8368 118.663 31.8181 118.665 31.7997V26.7323C118.665 26.6491 118.712 26.6075 118.802 26.6075H120.455C120.652 26.6063 120.849 26.6343 121.038 26.6907C121.229 26.7422 121.408 26.8325 121.562 26.956C121.714 27.0821 121.833 27.2428 121.909 27.4243C122.002 27.6411 122.047 27.8754 122.04 28.111C122.039 28.2653 122.019 28.419 121.982 28.5689C121.946 28.7196 121.886 28.8636 121.804 28.9955C121.723 29.1337 121.616 29.2555 121.489 29.3545C121.344 29.4614 121.183 29.544 121.011 29.599L122.103 31.7893ZM121.363 28.0954C121.371 27.9363 121.34 27.7776 121.274 27.6324C121.222 27.5196 121.14 27.4226 121.038 27.3514C120.934 27.2827 120.818 27.235 120.696 27.211C120.567 27.1837 120.435 27.1698 120.303 27.1693H119.295V29.136H120.287C120.41 29.1365 120.534 29.1243 120.654 29.0995C120.781 29.0775 120.901 29.0277 121.006 28.9539C121.118 28.8656 121.203 28.7487 121.253 28.6157C121.328 28.4524 121.365 28.2748 121.363 28.0954Z" fill="#636363"/>
<path d="M127.324 31.8985C127.29 31.909 127.254 31.909 127.219 31.8985H124.401C124.301 31.8985 124.254 31.8569 124.254 31.7685V26.7427C124.254 26.649 124.301 26.6074 124.401 26.6074H127.183C127.277 26.6074 127.324 26.649 127.324 26.7323V27.0549C127.324 27.1433 127.272 27.1901 127.177 27.1901H124.878V28.8758H126.941C127.036 28.8758 127.078 28.9174 127.078 29.0059V29.318C127.078 29.4013 127.036 29.4429 126.941 29.4429H124.878V31.3523H127.24C127.33 31.3523 127.372 31.3991 127.372 31.4875V31.7945C127.372 31.8143 127.368 31.8339 127.36 31.8519C127.352 31.87 127.34 31.8859 127.324 31.8985Z" fill="#636363"/>
<path d="M132.908 30.447C132.915 30.6976 132.865 30.9464 132.761 31.1753C132.67 31.3649 132.533 31.5293 132.362 31.654C132.184 31.7778 131.982 31.8662 131.769 31.9141C131.537 31.9687 131.299 31.9966 131.061 31.9974H130.683L130.258 31.9505L129.854 31.8829C129.74 31.8638 129.629 31.8306 129.523 31.784C129.465 31.758 129.428 31.732 129.418 31.706C129.408 31.6756 129.408 31.6427 129.418 31.6124L129.476 31.3834C129.476 31.3262 129.539 31.3002 129.612 31.3054L129.985 31.347L130.384 31.3834L130.756 31.4095H131.056C131.378 31.4284 131.699 31.3485 131.974 31.1805C132.075 31.1095 132.155 31.0147 132.21 30.9048C132.264 30.7948 132.289 30.6732 132.284 30.551C132.288 30.3967 132.27 30.2426 132.231 30.0932C132.2 29.9791 132.136 29.8762 132.048 29.7966C131.946 29.7133 131.828 29.6514 131.701 29.6145C131.529 29.5611 131.354 29.5194 131.176 29.4897C130.946 29.4565 130.718 29.4096 130.494 29.3492C130.3 29.2986 130.114 29.2197 129.943 29.1151C129.788 29.0174 129.661 28.8811 129.575 28.7197C129.479 28.5167 129.434 28.2935 129.444 28.0693C129.43 27.8615 129.463 27.6531 129.539 27.459C129.615 27.2648 129.733 27.0896 129.885 26.9456C130.251 26.6679 130.706 26.5312 131.166 26.5606H131.465L131.848 26.5918L132.252 26.6542C132.375 26.6813 132.496 26.716 132.614 26.7583C132.672 26.7843 132.709 26.8051 132.719 26.8363C132.73 26.8684 132.73 26.903 132.719 26.9352L132.672 27.1537C132.661 27.1808 132.645 27.2056 132.625 27.2265C132.625 27.2265 132.572 27.2265 132.52 27.2265C132.341 27.2005 132.131 27.1745 131.885 27.1537C131.646 27.1287 131.406 27.1165 131.166 27.1172C130.989 27.1138 130.812 27.1348 130.641 27.1797C130.514 27.2134 130.398 27.2757 130.3 27.3618C130.216 27.44 130.154 27.5387 130.121 27.6479C130.087 27.768 130.069 27.8924 130.069 28.0173C130.064 28.1468 130.085 28.276 130.132 28.3971C130.174 28.4913 130.243 28.571 130.331 28.626C130.442 28.6915 130.562 28.7389 130.688 28.7665L131.213 28.8758C131.444 28.9174 131.664 28.9642 131.874 29.0162C132.062 29.0679 132.239 29.1506 132.399 29.2607C132.555 29.3762 132.679 29.5281 132.761 29.703C132.867 29.9366 132.917 30.1911 132.908 30.447Z" fill="#636363"/>
<path d="M137.067 26.5345H137.366C137.492 26.5396 137.619 26.5518 137.744 26.5709C137.88 26.5709 138.017 26.6073 138.148 26.6333C138.273 26.6573 138.396 26.6921 138.515 26.7374C138.573 26.7374 138.61 26.7894 138.62 26.8154C138.631 26.8475 138.631 26.8821 138.62 26.9143L138.568 27.138C138.559 27.1649 138.545 27.1897 138.526 27.2108C138.509 27.2195 138.49 27.224 138.471 27.224C138.452 27.224 138.433 27.2195 138.416 27.2108L137.791 27.1328C137.55 27.1328 137.308 27.0963 137.067 27.0963C136.806 27.0847 136.548 27.146 136.321 27.2732C136.138 27.3897 135.993 27.5558 135.902 27.7519C135.797 27.9711 135.733 28.2073 135.713 28.449C135.686 28.7144 135.676 28.9693 135.676 29.2867C135.675 29.5475 135.691 29.8082 135.723 30.0671C135.75 30.2989 135.817 30.5243 135.923 30.733C136.019 30.9213 136.166 31.0797 136.348 31.1909C136.564 31.3193 136.815 31.3809 137.067 31.3677C137.313 31.3677 137.55 31.3677 137.775 31.3313L138.41 31.2533C138.468 31.2533 138.505 31.2533 138.526 31.2533C138.545 31.2744 138.559 31.2992 138.568 31.3261L138.61 31.5394C138.62 31.5734 138.62 31.6095 138.61 31.6435C138.61 31.6435 138.568 31.6903 138.515 31.7111C138.405 31.761 138.289 31.796 138.169 31.8152C138.034 31.8454 137.897 31.8679 137.76 31.8828L137.366 31.9192H137.062C136.698 31.9377 136.337 31.8624 136.012 31.7007C135.753 31.5596 135.534 31.3555 135.377 31.1076C135.22 30.8471 135.115 30.5592 135.067 30.2596C135.014 29.9275 134.987 29.5917 134.988 29.2555C134.988 28.9073 135.013 28.5596 135.062 28.2149C135.106 27.9045 135.208 27.6047 135.361 27.3305C135.511 27.0701 135.728 26.8545 135.991 26.7061C136.328 26.556 136.699 26.4968 137.067 26.5345Z" fill="#636363"/>
<path d="M142.577 31.41C142.751 31.421 142.925 31.3968 143.09 31.3386C143.254 31.2805 143.405 31.1897 143.532 31.0718C143.779 30.7826 143.899 30.4085 143.868 30.0312V26.7484C143.865 26.7278 143.867 26.7067 143.873 26.6869C143.879 26.667 143.89 26.6489 143.905 26.6339C143.94 26.6207 143.979 26.6207 144.015 26.6339H144.346C144.378 26.6219 144.413 26.6219 144.445 26.6339C144.471 26.6665 144.482 26.7076 144.477 26.7484V30C144.485 30.1612 144.485 30.3227 144.477 30.4839C144.458 30.6391 144.419 30.7912 144.361 30.9365C144.23 31.2812 143.977 31.5663 143.648 31.7377C143.323 31.9025 142.963 31.9864 142.598 31.9823C141.685 31.9823 141.102 31.6354 140.85 30.9417C140.787 30.7972 140.745 30.645 140.724 30.4891C140.702 30.3166 140.691 30.1427 140.693 29.9688V26.7484C140.688 26.7076 140.699 26.6665 140.724 26.6339C140.758 26.6211 140.795 26.6211 140.829 26.6339H141.181C141.213 26.6219 141.248 26.6219 141.28 26.6339C141.295 26.6489 141.306 26.667 141.312 26.6869C141.319 26.7067 141.32 26.7278 141.317 26.7484V30.0208C141.288 30.3945 141.4 30.7656 141.632 31.0614C141.755 31.1835 141.903 31.2779 142.066 31.3381C142.229 31.3983 142.403 31.4228 142.577 31.41Z" fill="#636363"/>
<path d="M147.541 27.726V31.7893C147.544 31.8076 147.542 31.8264 147.536 31.844C147.53 31.8615 147.52 31.8775 147.507 31.8907C147.494 31.9038 147.478 31.9137 147.46 31.9195C147.442 31.9254 147.423 31.9271 147.405 31.9245H147.069C146.969 31.9245 146.922 31.8777 146.922 31.7893V26.727C146.922 26.6438 146.964 26.6074 147.053 26.6074H147.389C147.434 26.6027 147.479 26.6158 147.515 26.6438C147.544 26.6711 147.57 26.7007 147.594 26.7323L149.777 30.088L150.208 30.7591V26.7479C150.202 26.7071 150.214 26.666 150.239 26.6334C150.273 26.6215 150.31 26.6215 150.344 26.6334H150.685C150.717 26.6214 150.753 26.6214 150.785 26.6334C150.81 26.666 150.821 26.7071 150.816 26.7479V31.7945C150.819 31.8121 150.817 31.8302 150.812 31.8472C150.806 31.8642 150.797 31.8796 150.784 31.8922C150.771 31.9049 150.755 31.9144 150.738 31.92C150.721 31.9256 150.703 31.9272 150.685 31.9245H150.381C150.335 31.9287 150.289 31.9177 150.25 31.8933C150.219 31.8636 150.193 31.8304 150.171 31.7945L148.019 28.4908L147.541 27.726Z" fill="#636363"/>
<path d="M156.332 27.1745H154.973V31.7841C154.973 31.8777 154.925 31.9246 154.841 31.9246H154.495C154.395 31.9246 154.348 31.8777 154.348 31.7841V27.1745H152.994C152.975 27.1769 152.956 27.1751 152.938 27.1693C152.92 27.1634 152.904 27.1536 152.89 27.1406C152.877 27.1276 152.866 27.1118 152.859 27.0942C152.853 27.0767 152.85 27.0579 152.852 27.0392V26.7323C152.852 26.649 152.894 26.6074 152.989 26.6074H156.337C156.432 26.6074 156.474 26.649 156.474 26.7323V27.0549C156.473 27.0722 156.469 27.0893 156.461 27.1049C156.454 27.1205 156.443 27.1344 156.429 27.1457C156.416 27.157 156.401 27.1653 156.384 27.1703C156.367 27.1753 156.349 27.1767 156.332 27.1745Z" fill="#636363"/>
</svg>
